<svg width="32" height="26" viewBox="0 0 32 26" fill="none" xmlns="http://www.w3.org/2000/svg">
<path d="M31.1708 14.3819C31.1753 14.3886 31.1781 14.3925 31.1781 14.3925L27.7722 7.28511C27.724 7.18124 27.6725 7.07902 27.6182 6.9789L27.6143 6.97124V6.97157C26.905 5.67013 25.7051 4.67913 24.2691 4.25243L23.0336 1.71248L23.0305 1.71542C22.5009 0.697026 21.4451 0 20.2297 0C18.4856 0 17.0666 1.43448 17.0666 3.19751V6.46286C17.0666 7.05799 16.5893 7.54044 16.0005 7.54093C16.0002 7.54093 16 7.54093 15.9998 7.54093C15.9995 7.54093 15.9994 7.54093 15.9992 7.54093C15.4102 7.54044 14.9332 7.05799 14.9332 6.46286V3.19751C14.9332 1.43448 13.514 0 11.7696 0C10.5544 0 9.4988 0.697026 8.96904 1.71542L8.96596 1.71248L7.73061 4.25243C6.29441 4.67913 5.09454 5.6698 4.38539 6.9714L4.38507 6.97124L4.38136 6.97875C4.32699 7.07902 4.27585 7.18125 4.2273 7.28495L0.821429 14.3925C0.821429 14.3925 0.824169 14.3886 0.828686 14.3819C0.300536 15.4164 0 16.5881 0 17.8303C0 21.9915 3.34973 25.377 7.46669 25.377C10.7232 25.377 13.4977 23.2582 14.5161 20.3134C14.5202 20.3028 14.5243 20.2937 14.5285 20.2819C14.8267 19.454 15.4381 19.0946 16 19.0946C16.5619 19.0946 17.1734 19.454 17.4712 20.2819C17.4757 20.2937 17.4798 20.3028 17.4838 20.3134C18.5022 23.2582 21.2768 25.377 24.5333 25.377C28.6503 25.377 32 21.9915 32 17.8303C31.9997 16.5881 31.6993 15.4163 31.1708 14.3819ZM7.45298 23.4485C4.41895 23.4485 1.95951 20.9625 1.95951 17.8961C1.95951 14.8298 4.41895 12.3438 7.45298 12.3438C10.4869 12.3438 12.9463 14.8298 12.9463 17.8961C12.9461 20.9625 10.4867 23.4485 7.45298 23.4485ZM24.5375 23.4485C21.5038 23.4485 19.0442 20.9625 19.0442 17.8961C19.0442 14.8298 21.5038 12.3438 24.5375 12.3438C27.5715 12.3438 30.031 14.8298 30.031 17.8961C30.0308 20.9625 27.5714 23.4485 24.5375 23.4485Z" fill="black"/>
</svg>
