<svg width="46" height="46" viewBox="0 0 46 46" fill="none" xmlns="http://www.w3.org/2000/svg">
<g clip-path="url(#clip0_207_41)">
<path d="M23 3.83331C12.42 3.83331 3.83334 12.42 3.83334 23C3.83334 33.58 12.42 42.1666 23 42.1666C33.58 42.1666 42.1667 33.58 42.1667 23C42.1667 12.42 33.58 3.83331 23 3.83331ZM23 9.58331C26.1817 9.58331 28.75 12.1516 28.75 15.3333C28.75 18.515 26.1817 21.0833 23 21.0833C19.8183 21.0833 17.25 18.515 17.25 15.3333C17.25 12.1516 19.8183 9.58331 23 9.58331ZM23 36.8C18.2083 36.8 13.9725 34.3466 11.5 30.6283C11.5575 26.8141 19.1667 24.725 23 24.725C26.8142 24.725 34.4425 26.8141 34.5 30.6283C32.0275 34.3466 27.7917 36.8 23 36.8Z" fill="white"/>
</g>
<defs>
<clipPath id="clip0_207_41">
<rect width="46" height="46" fill="white"/>
</clipPath>
</defs>
</svg>
