<svg width="228" height="228" viewBox="0 0 228 228" fill="none" xmlns="http://www.w3.org/2000/svg">
<g filter="url(#filter0_d_92_63)">
<circle cx="206.5" cy="206.5" r="21.5" fill="white"/>
</g>
<line x1="207" y1="193" x2="207" y2="220" stroke="black" stroke-width="4"/>
<path d="M220 207L193 207" stroke="black" stroke-width="4"/>
<ellipse cx="112" cy="145.5" rx="88" ry="56.5" fill="white"/>
<path d="M110.833 0C49.6533 0 0 49.6533 0 110.833C0 172.013 49.6533 221.667 110.833 221.667C172.013 221.667 221.667 172.013 221.667 110.833C221.667 49.6533 172.013 0 110.833 0ZM110.833 33.25C129.232 33.25 144.083 48.1017 144.083 66.5C144.083 84.8983 129.232 99.75 110.833 99.75C92.435 99.75 77.5833 84.8983 77.5833 66.5C77.5833 48.1017 92.435 33.25 110.833 33.25ZM110.833 190.633C83.125 190.633 58.6308 176.447 44.3333 154.945C44.6658 132.889 88.6667 120.808 110.833 120.808C132.889 120.808 177.001 132.889 177.333 154.945C163.036 176.447 138.542 190.633 110.833 190.633Z" fill="black"/>
<defs>
<filter id="filter0_d_92_63" x="176" y="178" width="63" height="63" filterUnits="userSpaceOnUse" color-interpolation-filters="sRGB">
<feFlood flood-opacity="0" result="BackgroundImageFix"/>
<feColorMatrix in="SourceAlpha" type="matrix" values="0 0 0 0 0 0 0 0 0 0 0 0 0 0 0 0 0 0 127 0" result="hardAlpha"/>
<feOffset dx="1" dy="3"/>
<feGaussianBlur stdDeviation="5"/>
<feComposite in2="hardAlpha" operator="out"/>
<feColorMatrix type="matrix" values="0 0 0 0 0 0 0 0 0 0 0 0 0 0 0 0 0 0 0.25 0"/>
<feBlend mode="normal" in2="BackgroundImageFix" result="effect1_dropShadow_92_63"/>
<feBlend mode="normal" in="SourceGraphic" in2="effect1_dropShadow_92_63" result="shape"/>
</filter>
</defs>
</svg>
